<svg id="Capa_1" enable-background="new 0 0 512 512" height="512" viewBox="0 0 512 512" width="512" xmlns="http://www.w3.org/2000/svg" xmlns:xlink="http://www.w3.org/1999/xlink"><linearGradient id="SVGID_1_" gradientUnits="userSpaceOnUse" x1="256" x2="256" y1="512" y2="0"><stop offset="0" stop-color="#c3ffe8"/><stop offset=".9973" stop-color="#f0fff4"/></linearGradient><linearGradient id="SVGID_2_" gradientTransform="matrix(.707 .707 -.707 .707 3513.242 2186.319)" gradientUnits="userSpaceOnUse" x1="-3668.159" x2="-3668.159" y1="728.754" y2="1043.199"><stop offset="0" stop-color="#00b59c"/><stop offset="1" stop-color="#9cffac"/></linearGradient><g><g><circle cx="256" cy="256" fill="url(#SVGID_1_)" r="256"/></g><g><g><path d="m394.61 105.716-284.636 136.13c-3.015 1.444-4.943 4.484-4.973 7.825-.018 3.354 1.837 6.429 4.84 7.898l88.143 44.072 70.46-70.46c3.42-3.42 8.955-3.42 12.375 0s3.42 8.955 0 12.375l-70.46 70.46 44.072 88.143c1.412 2.866 4.431 4.867 7.898 4.84 3.342-.03 6.381-1.958 7.825-4.973l136.13-284.636c3.203-6.683-4.991-14.877-11.674-11.674z" fill="url(#SVGID_2_)"/></g></g></g></svg>